<svg width="32" height="10" viewBox="0 0 32 10" fill="none" xmlns="http://www.w3.org/2000/svg">
    <path
        d="M30.4003 6.67079H25.5975V1.67055C25.5975 0.750868 24.8813 0.00523308 23.9978 0.00523308C23.5785 0.00523308 23.1971 0.173096 22.912 0.447955L22.9093 0.450332C22.881 0.477913 22.8531 0.506444 22.8266 0.535927L22.6722 0.696182C22.6439 0.721861 22.6165 0.74849 22.5895 0.776071L19.1942 4.31071L15.7988 0.776071C15.7732 0.749441 15.7467 0.723763 15.7198 0.699035L15.5567 0.529269C15.2648 0.206382 14.8509 0.00428108 14.3914 0.00428108C13.5079 0.00428108 12.7917 0.749919 12.7917 1.6696V6.66508H9.60553V1.66532C9.60553 0.745638 8.88927 0 8.00582 0C7.96654 0 7.92771 0.00142788 7.88934 0.00428108H1.5997C0.716258 0.00428108 0 0.749919 0 1.6696C0 2.58928 0.716258 3.33492 1.5997 3.33492H6.40703V8.44596C6.46413 9.31143 7.15618 9.99572 8.00217 9.99572H14.4005C15.2282 9.99572 15.9089 9.34138 15.9915 8.50302V5.68548L18.0618 7.8406C18.3747 8.16634 18.7849 8.32897 19.1951 8.3285C19.6053 8.32897 20.0155 8.16634 20.3284 7.8406L22.3986 5.68548V8.3304C22.3986 8.7774 22.5676 9.18303 22.843 9.48214C23.1345 9.80123 23.5461 10 24.0019 10H30.4003C31.2837 10 32 9.25436 32 8.33468C32 7.415 31.2837 6.66936 30.4003 6.66936V6.67079Z"
        fill="#F5BA00" />
</svg>